<svg width="17" height="19" viewBox="0 0 17 19" fill="none" xmlns="http://www.w3.org/2000/svg">
<path d="M11.8688 3.87228C12.3292 3.87228 12.7236 3.70818 13.0517 3.38C13.3799 3.05181 13.5437 2.65776 13.5432 2.19786C13.5432 1.73739 13.3791 1.34307 13.0509 1.01488C12.7227 0.686695 12.3287 0.522881 11.8688 0.523439C11.4083 0.523439 11.014 0.687532 10.6858 1.01572C10.3576 1.3439 10.1938 1.73795 10.1943 2.19786C10.1943 2.65832 10.3584 3.05265 10.6866 3.38083C11.0148 3.70902 11.4089 3.87283 11.8688 3.87228ZM14.192 18.5234C14.0664 18.5234 13.9372 18.5165 13.8044 18.5025C13.6716 18.4886 13.5426 18.4676 13.4176 18.4397L2.84783 16.1793C2.23388 16.0537 1.7003 15.8061 1.24709 15.4366C0.793878 15.0672 0.44839 14.617 0.210623 14.0862C0.182716 14.0304 0.168762 13.9048 0.168762 13.7095C0.210623 13.542 0.30132 13.4095 0.440855 13.3118C0.58039 13.2141 0.740855 13.1793 0.92225 13.2072C1.01992 13.2351 1.10365 13.2806 1.17341 13.3436C1.24318 13.4067 1.29899 13.4798 1.34086 13.563C1.5083 13.9118 1.74216 14.2118 2.04244 14.463C2.34272 14.7141 2.6949 14.8816 3.09899 14.9653L3.49667 15.049L6.4269 13.0816L5.75713 10.1513C5.70132 9.94204 5.69434 9.72911 5.7362 9.51256C5.77806 9.296 5.85481 9.09032 5.96644 8.89553L8.05946 5.54669H6.09202L4.94086 7.38855C4.81527 7.5839 4.64085 7.70948 4.4176 7.7653C4.19434 7.82111 3.98504 7.78623 3.78969 7.66065C3.59434 7.53507 3.47211 7.36065 3.42299 7.13739C3.37388 6.91414 3.40541 6.70483 3.5176 6.50948L4.66876 4.66762C4.82225 4.41646 5.02793 4.22111 5.28579 4.08158C5.54365 3.94204 5.81239 3.87228 6.09202 3.87228H9.94318C10.3199 3.87228 10.6236 3.97693 10.8541 4.18623C11.0846 4.39553 11.2414 4.59088 11.3246 4.77228L11.7641 5.77693C12.0013 6.34902 12.3571 6.83042 12.8316 7.22111C13.306 7.61181 13.8571 7.86995 14.485 7.99553C14.6943 8.03739 14.8688 8.13507 15.0083 8.28855C15.1478 8.44204 15.2176 8.61646 15.2176 8.81181C15.2176 9.07693 15.1233 9.29321 14.9346 9.46065C14.746 9.62809 14.5333 9.69088 14.2967 9.64902C13.5013 9.50948 12.7863 9.22344 12.1517 8.79088C11.5171 8.35832 10.9972 7.82111 10.592 7.17925L9.08504 9.58623L11.3664 11.4281C11.5199 11.5537 11.6525 11.7072 11.7641 11.8886C11.8757 12.0699 11.9455 12.2583 11.9734 12.4537L12.706 17.0165L13.6688 17.2048C13.7525 17.2327 13.8398 17.2503 13.9308 17.2576C14.0218 17.2648 14.1089 17.2682 14.192 17.2676C14.5269 17.2676 14.8269 17.2118 15.092 17.1002C15.3571 16.9886 15.6083 16.8351 15.8455 16.6397C15.9153 16.57 16.0967 16.5281 16.3897 16.5141C16.5711 16.542 16.707 16.6327 16.7974 16.7862C16.8878 16.9397 16.9194 17.0932 16.892 17.2467C16.8781 17.3165 16.8535 17.3793 16.8183 17.4351C16.7832 17.4909 16.738 17.5467 16.6827 17.6025C16.3339 17.9095 15.9432 18.1397 15.5106 18.2932C15.0781 18.4467 14.6385 18.5234 14.192 18.5234ZM10.9478 16.6397L10.3199 12.7467L7.93388 11.0513L8.20597 13.0606C8.23388 13.2979 8.19899 13.5247 8.10132 13.7413C8.00365 13.9579 7.85713 14.1356 7.66179 14.2746L5.77806 15.5304L10.9478 16.6397Z" fill="#FF7D1B"/>
</svg>
