<svg width="268" height="24" viewBox="0 0 268 24" fill="none" xmlns="http://www.w3.org/2000/svg">
<path d="M20.1901 0C20.7084 0 21.1058 0.0691146 21.3823 0.207344C21.6587 0.345572 21.797 0.62203 21.797 1.03672C21.797 1.17495 21.7711 1.34773 21.7192 1.55508L21.149 4.06911L18.9719 13.6069L18.2721 16.6134C18.1339 17.2181 17.8747 17.6328 17.4946 17.8575C17.1145 18.0821 16.6307 18.1857 16.0432 18.1685L6.5054 18.1425L7.17927 15.162C7.31749 14.5572 7.57667 14.1425 7.9568 13.9179C8.33693 13.6933 8.82073 13.5896 9.40821 13.6069H13.7106L15.8618 4.06911L9.33045 4.09503L10.2376 0.0259176L20.1901 0ZM0 18.1685L4.06911 0.0259176H9.33045L5.31317 18.1685H0Z" fill="#37536B"/>
<path d="M31.7829 0.0259176L30.8239 4.22462H25.5366L26.5215 0.0259176H31.7829ZM30.5906 5.2095L27.6101 18.1685H22.3228L25.3293 5.2095H30.5906Z" fill="#37536B"/>
<path d="M53.1326 5.2095L50.0224 19.0497H44.7092L46.9382 9.27862H39.5516L38.5926 13.6328H44.9166L44.2427 16.6134C44.1045 17.2181 43.8453 17.6328 43.4652 17.8575C43.085 18.0821 42.6012 18.1857 42.0138 18.1685H33.9533C33.5386 18.1857 33.2017 18.0734 32.9425 17.8315C32.7006 17.5724 32.5796 17.2613 32.5796 16.8985C32.5796 16.8294 32.5969 16.7084 32.6315 16.5356L33.2017 14.0734L33.3053 13.6069L34.2902 9.27862L34.9382 6.60907C35.0591 6.15983 35.2665 5.81425 35.5602 5.57235C35.8539 5.33045 36.2254 5.2095 36.6747 5.2095H53.1326ZM33.9015 19.9309H49.8669L49.3485 22.1857C49.2103 22.7732 48.9943 23.2225 48.7006 23.5335C48.4241 23.8445 47.9662 24 47.3269 24H34.5753C34.1088 24 33.7805 23.9136 33.5904 23.7408C33.4004 23.568 33.3053 23.3175 33.3053 22.9892C33.3053 22.7127 33.3399 22.4449 33.409 22.1857L33.9015 19.9309Z" fill="#37536B"/>
<path d="M64.1297 0.0259176L63.1707 4.22462H57.8834L58.8683 0.0259176H64.1297ZM62.9374 5.2095L59.9569 18.1685H54.6696L57.6761 5.2095H62.9374Z" fill="#37536B"/>
<path d="M80.4772 18.1685H68.2698C67.0776 18.1685 66.2223 17.9438 65.704 17.4946C65.1856 17.0454 64.9264 16.3888 64.9264 15.5248C64.9264 15.0756 65.0128 14.4881 65.1856 13.7624L68.2698 0.0259176H73.5312L70.6025 13.3218H81.5398L80.4772 18.1685ZM72.5463 10.3413L73.7126 5.2095H80.5809L82.1878 10.3413H72.5463Z" fill="#37536B"/>
<path d="M103.877 4.01728C104.707 4.01728 105.286 4.14687 105.614 4.40605C105.942 4.64795 106.106 5.00216 106.106 5.46868C106.106 5.71058 106.055 6.07343 105.951 6.55724L105.821 7.10151L103.385 18.1685H86.3828C85.8817 18.1857 85.4843 18.1166 85.1906 17.9611C84.9141 17.7883 84.7759 17.4946 84.7759 17.0799C84.7759 17.0108 84.7932 16.8553 84.8278 16.6134L85.8645 11.4298C86.0372 10.5832 86.2187 9.99568 86.4087 9.66739C86.6161 9.32182 86.9271 9.10583 87.3418 9.01944C87.7565 8.91577 88.4649 8.86393 89.467 8.86393H91.074H96.9833C97.5362 8.86393 97.9422 8.93305 98.2014 9.07127C98.4606 9.2095 98.5902 9.47732 98.5902 9.87473C98.5902 10.0302 98.5642 10.2117 98.5124 10.419L98.0718 12.4147L90.3742 12.3888L89.8558 14.9287L98.7975 14.9546L99.2122 13.0886H99.1863L100.456 7.56804H87.1344L87.6528 5.57235C87.8083 4.9676 88.0675 4.55292 88.4303 4.32829C88.8105 4.10367 89.2943 4 89.8817 4.01728H103.877Z" fill="#37536B"/>
<path d="M113.21 18.1685H107.923L111.966 0.0259176H115.361C115.862 0.0259176 116.251 0.103671 116.528 0.259179C116.804 0.397408 116.942 0.673866 116.942 1.08855C116.942 1.2959 116.925 1.46004 116.89 1.58099L113.21 18.1685Z" fill="#37536B"/>
<path d="M142.847 7.59395C143.711 7.59395 144.359 7.61987 144.791 7.67171C145.223 7.72354 145.543 7.84449 145.75 8.03456C145.957 8.20734 146.061 8.4838 146.061 8.86393C146.061 9.14039 145.992 9.57235 145.854 10.1598L144.35 16.6134C144.212 17.2181 143.953 17.6328 143.573 17.8575C143.193 18.0821 142.709 18.1857 142.122 18.1685L131.106 18.1425L131.78 15.162C131.919 14.5572 132.178 14.1425 132.558 13.9179C132.938 13.6933 133.422 13.5896 134.009 13.6069H140.333L140.877 11.378L132.661 11.3521L133.18 9.14903C133.318 8.527 133.577 8.11231 133.957 7.90497C134.338 7.68035 134.821 7.57667 135.409 7.59395H140.126L140.929 4.22462L133.102 4.27646L130.018 18.1685H124.705L128.774 0.0259176H144.998C145.413 0.0259176 145.715 0.112311 145.906 0.285097C146.096 0.457884 146.191 0.76026 146.191 1.19222C146.191 1.57235 146.13 2.03024 146.009 2.56587C145.785 3.56803 145.379 4.44924 144.791 5.2095C144.204 5.95248 143.538 6.53132 142.795 6.946C142.07 7.34341 141.404 7.5594 140.8 7.59395H141.344H142.847Z" fill="#A6CF7E"/>
<path d="M167.266 5.2095C167.784 5.2095 168.181 5.27862 168.458 5.41685C168.734 5.55508 168.872 5.83153 168.872 6.24622C168.872 6.38445 168.847 6.55724 168.795 6.76458L168.225 9.27862L167.24 13.6069L166.54 16.6134C166.402 17.2181 166.142 17.6328 165.762 17.8575C165.382 18.0821 164.898 18.1857 164.311 18.1685L154.773 18.1425L155.447 15.162C155.585 14.5572 155.844 14.1425 156.225 13.9179C156.605 13.6933 157.088 13.5896 157.676 13.6069H161.978L162.937 9.27862H155.577L153.581 18.1685H148.268L150.289 9.27862L150.808 7.02376C150.946 6.43629 151.153 5.98704 151.43 5.67603C151.723 5.36501 152.19 5.2095 152.829 5.2095H167.266Z" fill="#A6CF7E"/>
<path d="M189.159 5.2095C189.678 5.2095 190.075 5.27862 190.351 5.41685C190.628 5.55508 190.766 5.83153 190.766 6.24622C190.766 6.38445 190.74 6.55724 190.688 6.76458L190.118 9.27862L189.133 13.6069L188.433 16.6134C188.295 17.2181 188.036 17.6328 187.656 17.8575C187.276 18.0821 186.792 18.1857 186.204 18.1685L176.667 18.1425L177.341 15.162C177.479 14.5572 177.738 14.1425 178.118 13.9179C178.498 13.6933 178.982 13.5896 179.57 13.6069H183.872L184.831 9.27862H177.47L175.474 18.1685H170.161L172.183 9.27862L172.701 7.02376C172.839 6.43629 173.047 5.98704 173.323 5.67603C173.617 5.36501 174.084 5.2095 174.723 5.2095H189.159Z" fill="#A6CF7E"/>
<path d="M197.9 18.1685H192.586L196.655 0.0259176H201.917L197.9 18.1685ZM199.792 13.8143L200.854 9.20086H204.82C205.597 9.20086 206.202 9.00216 206.634 8.60475C207.066 8.20734 207.386 7.60259 207.593 6.7905L207.982 5.2095H213.217L212.673 7.69762C212.327 9.23542 211.766 10.324 210.988 10.9633C210.211 11.6026 209.243 11.9136 208.085 11.8963C209.917 11.9309 210.833 12.9244 210.833 14.8769C210.833 15.4816 210.746 16.1555 210.573 16.8985L210.288 18.1685H205.027L205.545 16.0432C205.614 15.7322 205.649 15.5076 205.649 15.3693C205.649 14.419 204.949 13.9006 203.55 13.8143H199.792Z" fill="#A6CF7E"/>
<path d="M224.218 0.0259176L223.259 4.22462H217.972L218.957 0.0259176H224.218ZM223.026 5.2095L220.046 18.1685H214.758L217.765 5.2095H223.026Z" fill="#A6CF7E"/>
<path d="M243.832 5.2095C244.35 5.2095 244.747 5.27862 245.024 5.41685C245.3 5.55508 245.438 5.83153 245.438 6.24622C245.438 6.38445 245.413 6.55724 245.361 6.76458L244.791 9.27862L243.728 13.6069L243.028 16.6134C242.89 17.2181 242.631 17.6328 242.251 17.8575C241.87 18.0821 241.387 18.1857 240.799 18.1685L237.43 18.1425L238.467 13.6069L239.503 9.27862H232.091L230.069 18.1685H224.756L227.348 7.02376C227.486 6.43629 227.693 5.98704 227.97 5.67603C228.264 5.36501 228.73 5.2095 229.369 5.2095H243.832Z" fill="#A6CF7E"/>
<path d="M267.791 5.2095L264.681 19.0497H259.367L261.596 9.27862H254.21L253.251 13.6328H259.575L258.901 16.6134C258.763 17.2181 258.503 17.6328 258.123 17.8575C257.743 18.0821 257.259 18.1857 256.672 18.1685H248.611C248.197 18.1857 247.86 18.0734 247.601 17.8315C247.359 17.5724 247.238 17.2613 247.238 16.8985C247.238 16.8294 247.255 16.7084 247.29 16.5356L247.86 14.0734L247.963 13.6069L248.948 9.27862L249.596 6.60907C249.717 6.15983 249.925 5.81425 250.218 5.57235C250.512 5.33045 250.884 5.2095 251.333 5.2095H267.791ZM248.56 19.9309H264.525L264.007 22.1857C263.868 22.7732 263.652 23.2225 263.359 23.5335C263.082 23.8445 262.624 24 261.985 24H249.233C248.767 24 248.439 23.9136 248.249 23.7408C248.059 23.568 247.963 23.3175 247.963 22.9892C247.963 22.7127 247.998 22.4449 248.067 22.1857L248.56 19.9309Z" fill="#A6CF7E"/>
</svg>
