<svg width="58" height="24" viewBox="0 0 58 24" fill="none" xmlns="http://www.w3.org/2000/svg">
<path d="M27.5042 0C28.1888 0 28.7138 0.091289 29.0789 0.273867C29.4441 0.456444 29.6266 0.821599 29.6266 1.36933C29.6266 1.55191 29.5924 1.78013 29.5239 2.054L28.7708 5.37463L25.8952 17.9725L24.9709 21.9436C24.7883 22.7423 24.446 23.2901 23.9439 23.5868C23.4418 23.8834 22.8028 24.0204 22.0268 23.9976L9.42899 23.9633L10.3191 20.0265C10.5016 19.2277 10.844 18.68 11.3461 18.3833C11.8481 18.0866 12.4872 17.9497 13.2631 17.9725H18.9459L21.7872 5.37463L13.1604 5.40886L14.3586 0.0342329L27.5042 0ZM0.836426 23.9976L6.21106 0.0342329H13.1604L7.85426 23.9976H0.836426Z" fill="#EEF3F9"/>
<path d="M53.5838 10.0303C54.7249 10.0303 55.5807 10.0645 56.1513 10.133C56.7219 10.2015 57.1441 10.3612 57.4179 10.6123C57.6918 10.8405 57.8287 11.2057 57.8287 11.7077C57.8287 12.0729 57.7374 12.6435 57.5549 13.4194L55.5693 21.9435C55.3868 22.7423 55.0444 23.29 54.5423 23.5867C54.0402 23.8834 53.4012 24.0203 52.6253 23.9975L38.0761 23.9633L38.9662 20.0264C39.1488 19.2277 39.4911 18.6799 39.9932 18.3832C40.4953 18.0865 41.1343 17.9496 41.9102 17.9724H50.2632L50.9821 15.0284L40.1301 14.9941L40.8148 12.0843C40.9974 11.2627 41.3397 10.715 41.8418 10.4411C42.3439 10.1444 42.9829 10.0075 43.7588 10.0303H49.9893L51.0505 5.57998L40.7121 5.64845L36.6383 23.9975H29.6205L34.9951 0.0341797H56.4252C56.9729 0.0341797 57.3723 0.148291 57.6233 0.376513C57.8744 0.604736 57.9999 1.00412 57.9999 1.57468C57.9999 2.07677 57.92 2.68156 57.7603 3.38904C57.4636 4.71273 56.9273 5.87667 56.1513 6.88085C55.3753 7.8622 54.4967 8.62674 53.5153 9.17448C52.5568 9.69939 51.6782 9.98466 50.8794 10.0303H53.5838Z" fill="#A6CF7E"/>
</svg>
